<?xml version="1.0" standalone="no"?>
<!DOCTYPE svg PUBLIC "-//W3C//DTD SVG 20010904//EN"
 "http://www.w3.org/TR/2001/REC-SVG-20010904/DTD/svg10.dtd">
<svg version="1.0" xmlns="http://www.w3.org/2000/svg"
 width="512.000000pt" height="512.000000pt" viewBox="0 0 512.000000 512.000000"
 preserveAspectRatio="xMidYMid meet">

<g transform="translate(0.000000,512.000000) scale(0.100000,-0.100000)"
fill="#000000" stroke="none">
<path d="M2110 5029 c-359 -37 -733 -188 -1020 -412 -96 -75 -253 -230 -330
-327 -97 -122 -163 -227 -236 -375 -265 -538 -271 -1151 -17 -1785 137 -344
333 -647 626 -972 l67 -75 0 -477 0 -477 25 -24 24 -25 991 0 991 0 24 25 25
24 0 335 0 335 368 3 367 3 67 32 c93 44 151 100 196 191 l37 76 3 328 3 328
122 0 c140 0 177 8 243 53 90 61 135 190 101 291 -9 25 -106 196 -217 381
-111 184 -210 361 -221 392 -15 42 -23 101 -29 208 -15 249 -39 390 -101 580
-100 305 -283 593 -525 825 -419 401 -1000 598 -1584 539z m391 -159 c228 -23
425 -81 644 -190 526 -262 897 -767 990 -1350 8 -52 19 -167 24 -255 13 -235
18 -247 270 -668 116 -194 211 -363 211 -375 0 -36 -28 -80 -60 -97 -23 -12
-67 -15 -200 -15 -232 0 -220 12 -220 -225 l0 -175 -215 0 c-216 0 -216 0
-240 -25 -33 -32 -33 -78 0 -110 l24 -25 217 0 216 0 -4 -113 c-4 -123 -19
-167 -75 -218 -69 -65 -58 -64 -511 -69 l-414 -5 -19 -24 c-18 -22 -19 -43
-19 -357 l0 -334 -880 0 -880 0 0 455 0 456 -80 85 c-634 673 -913 1489 -754
2204 203 907 1054 1523 1975 1430z"/>
<path d="M1198 4146 c-143 -52 -203 -231 -119 -357 36 -53 100 -96 155 -104
l43 -7 6 -116 c11 -226 91 -412 246 -576 73 -76 208 -166 307 -204 69 -26 107
-36 222 -58 l22 -4 0 -324 0 -323 -46 -29 c-144 -91 -152 -297 -14 -399 53
-39 91 -45 300 -45 209 0 247 6 300 45 138 102 130 308 -14 399 l-46 29 0 323
0 324 23 4 c114 22 152 32 221 58 99 38 234 128 307 204 155 164 235 350 246
576 l6 116 43 7 c23 3 61 19 85 34 144 97 144 305 0 402 -55 36 -95 42 -287
37 -174 -4 -190 -8 -252 -69 -64 -63 -66 -71 -73 -334 -3 -132 -11 -254 -16
-270 -44 -130 -148 -231 -280 -270 l-23 -6 0 239 0 239 46 29 c144 91 152 297
14 399 -53 39 -91 45 -300 45 -209 0 -247 -6 -300 -45 -138 -102 -130 -308 14
-399 l46 -29 0 -239 0 -239 -22 6 c-133 39 -237 140 -281 270 -5 16 -13 138
-16 270 -7 262 -9 271 -72 334 -61 62 -77 66 -274 68 -131 2 -190 -1 -217 -11z"/>
</g>
</svg>
