<?xml version="1.0" encoding="UTF-8"?>
<svg version="1.1" xmlns="http://www.w3.org/2000/svg" width="64" height="64">
<path d="M0 0 C4.90021587 4.00926753 7.58341731 8.28499549 8.28515625 14.54296875 C8.51599756 21.6589032 7.44662144 28.65240651 3.9140625 34.9296875 C2.72786606 37.61637175 2.73467843 39.75724951 2.75 42.6875 C2.74484375 43.66074219 2.7396875 44.63398437 2.734375 45.63671875 C3.0690859 49.87474937 3.9884715 53.87842459 5 58 C1.10517784 58.23282073 -2.78785854 58.37456639 -6.6875 58.5 C-7.79029297 58.56703125 -8.89308594 58.6340625 -10.02929688 58.703125 C-13.20966588 58.77999192 -15.90917614 58.76632933 -19 58 C-21.45723683 55.63249909 -22.79058697 53.17029734 -24 50 C-25.216875 50.495 -26.43375 50.99 -27.6875 51.5 C-30.91674468 52.71382956 -33.51129162 53.42287374 -37 53 C-38 52 -38 52 -38.09765625 50.15234375 C-38.06510417 48.1015625 -38.03255208 46.05078125 -38 44 C-38.66 44 -39.32 44 -40 44 C-40.16276042 41.98177083 -40.32552083 39.96354167 -40.48828125 37.9453125 C-40.87393036 35.60480784 -40.87393036 35.60480784 -44 34 C-43.00853084 31.33065996 -42.03258619 29.04775006 -40.421875 26.6875 C-38.73768613 23.50419797 -38.8060882 21.74463095 -39.0625 18.1875 C-39.20296369 12.47765087 -38.41006678 8.61756583 -35 4 C-26.57481632 -4.65921656 -10.207503 -6.43516494 0 0 Z " fill="#000000" transform="translate(50,5)"/>
</svg>
